<?xml version="1.0" standalone="no"?>
<!DOCTYPE svg PUBLIC "-//W3C//DTD SVG 20010904//EN"
 "http://www.w3.org/TR/2001/REC-SVG-20010904/DTD/svg10.dtd">
<svg version="1.0" xmlns="http://www.w3.org/2000/svg"
 width="1080.000000pt" height="1080.000000pt" viewBox="0 0 1080.000000 1080.000000"
 preserveAspectRatio="xMidYMid meet">

<g transform="translate(0.000000,1080.000000) scale(0.100000,-0.100000)"
fill="#000000" stroke="none">
<path d="M0 5400 l0 -5400 5400 0 5400 0 0 5400 0 5400 -5400 0 -5400 0 0
-5400z m8167 2714 c-3 -3 -12 -4 -19 -1 -8 3 -5 6 6 6 11 1 17 -2 13 -5z m-34
-21 c-7 -2 -21 -2 -30 0 -10 3 -4 5 12 5 17 0 24 -2 18 -5z m-135 -69 c-57
-29 -123 -63 -148 -76 -105 -57 -186 -101 -195 -108 -5 -4 -50 -29 -100 -55
-49 -27 -101 -56 -115 -65 -14 -10 -68 -43 -120 -74 -99 -58 -197 -120 -273
-171 -25 -16 -64 -42 -88 -57 -126 -79 -390 -269 -418 -300 -9 -10 -20 -18
-25 -18 -12 0 -160 -114 -196 -150 -14 -15 -40 -35 -57 -45 -27 -16 -29 -20
-17 -32 20 -21 17 -37 -11 -65 -17 -17 -40 -27 -72 -31 -38 -4 -52 -12 -75
-38 -15 -19 -28 -36 -28 -39 0 -3 -31 -38 -70 -78 -38 -40 -70 -79 -70 -87 0
-8 -8 -15 -17 -15 -10 0 -31 -12 -48 -26 -16 -14 -37 -31 -46 -38 -27 -20 -49
-60 -49 -88 0 -25 3 -28 36 -28 41 0 74 -15 74 -33 0 -7 -15 -30 -34 -50 -29
-32 -39 -37 -63 -32 -27 6 -28 6 -8 -11 20 -16 20 -16 -4 -11 -30 7 -51 -8
-51 -37 0 -12 -17 -42 -37 -68 -21 -25 -49 -60 -63 -77 -14 -18 -40 -39 -57
-48 -18 -8 -33 -19 -33 -25 0 -5 -18 -27 -41 -49 -43 -42 -44 -48 -23 -139 8
-36 5 -79 -7 -101 -7 -15 -5 -27 8 -49 9 -17 21 -30 25 -30 4 0 8 -8 8 -18 0
-25 60 -52 114 -52 56 0 97 -29 80 -57 -6 -10 -31 -29 -56 -43 -25 -14 -53
-33 -62 -42 -15 -16 -44 -24 -70 -19 -13 3 -57 -41 -67 -66 -5 -13 -15 -23
-24 -23 -21 0 -19 -7 10 -36 14 -14 25 -28 25 -32 9 -143 8 -183 -5 -189 -8
-3 -15 -13 -15 -23 0 -10 -5 -20 -11 -22 -9 -3 -9 -18 1 -58 20 -83 44 -120
79 -120 12 0 21 -4 21 -10 0 -5 -4 -10 -10 -10 -5 0 -10 -4 -10 -10 0 -5 6
-10 14 -10 9 0 16 -15 19 -42 6 -58 37 -138 51 -138 20 0 84 -63 95 -93 6 -15
22 -32 35 -38 18 -8 27 -23 31 -50 4 -21 14 -49 24 -61 9 -13 25 -41 35 -63
26 -57 67 -115 81 -115 7 0 34 -27 61 -59 27 -33 54 -60 61 -60 7 -1 17 -10
23 -21 6 -11 17 -20 25 -20 8 0 32 -22 52 -49 35 -44 45 -50 113 -69 64 -19
76 -19 83 -7 10 18 48 20 65 3 15 -15 16 -48 0 -48 -6 0 -2 -8 9 -18 11 -9 30
-41 44 -69 17 -37 31 -55 49 -60 14 -3 39 -14 57 -24 43 -24 187 -51 311 -58
17 -1 15 -21 -3 -21 -8 0 -15 -4 -15 -10 0 -5 19 -10 41 -10 31 0 47 -6 62
-22 13 -16 21 -19 24 -10 7 19 47 14 77 -9 14 -11 24 -24 22 -27 -2 -4 2 -13
10 -20 8 -7 14 -9 14 -5 0 10 72 15 85 5 16 -12 35 -50 35 -72 0 -22 15 -27
23 -7 4 9 8 8 17 -3 9 -11 13 -12 17 -2 6 14 93 17 93 2 0 -5 14 -10 30 -10
53 0 120 -52 120 -94 0 -19 5 -26 20 -26 11 0 20 -4 20 -10 0 -5 7 -10 15 -10
25 0 55 -32 61 -66 5 -27 12 -34 42 -41 27 -6 37 -14 37 -28 1 -31 33 -96 58
-117 21 -19 22 -24 22 -236 0 -164 -3 -223 -14 -241 -7 -13 -19 -74 -26 -135
-13 -114 -21 -134 -82 -226 -17 -25 -40 -63 -52 -85 -11 -22 -21 -34 -21 -27
0 6 -9 12 -20 12 -11 0 -27 11 -35 24 -9 14 -28 32 -42 41 -23 15 -26 15 -44
-1 -16 -14 -24 -15 -44 -6 -29 13 -31 24 -10 42 13 11 21 40 11 40 -17 0 -96
-44 -116 -64 -13 -15 -30 -26 -37 -26 -8 0 -11 -4 -8 -10 3 -5 1 -10 -4 -10
-6 0 -11 -20 -11 -46 0 -45 0 -46 -30 -39 -26 6 -30 4 -30 -15 0 -32 -18 -60
-40 -60 -10 0 -20 -6 -23 -12 -2 -7 -7 22 -11 65 -7 73 -22 107 -47 107 -6 0
-7 5 -3 12 5 8 2 9 -9 5 -9 -3 -30 -2 -46 4 -23 8 -31 19 -41 57 -19 76 -24
77 -87 16 -31 -30 -68 -57 -82 -60 -14 -3 -39 -12 -56 -21 -43 -21 -97 -14
-112 16 -6 13 -19 28 -27 33 -9 5 -16 20 -16 33 0 18 -7 26 -27 31 -21 6 -30
2 -45 -20 -14 -19 -29 -26 -52 -26 -18 0 -37 -5 -43 -11 -8 -8 -9 2 -6 34 5
40 3 46 -25 66 -17 12 -45 21 -65 21 -19 0 -45 9 -60 20 -14 11 -34 20 -44 20
-15 0 -22 12 -32 49 -7 28 -19 55 -27 62 -8 6 -14 17 -14 24 0 7 -9 15 -20 18
-38 10 -22 33 31 45 28 7 59 12 69 12 24 0 27 5 35 63 6 41 5 47 -10 47 -9 0
-34 13 -54 29 -20 16 -50 31 -66 33 l-30 3 2 118 c2 71 -1 117 -7 117 -6 0
-10 -6 -10 -14 0 -26 -76 -47 -144 -40 -67 7 -86 21 -78 59 3 20 10 25 33 25
17 0 33 -8 42 -20 13 -19 14 -19 30 -2 10 10 14 22 10 25 -3 4 6 7 20 7 15 0
27 5 27 10 0 6 -4 10 -10 10 -5 0 -10 6 -10 14 0 9 -15 17 -39 21 -44 7 -53
21 -45 64 4 18 1 32 -7 36 -9 6 -11 3 -6 -8 4 -12 1 -17 -9 -17 -12 0 -14 5
-9 18 4 9 12 39 17 66 5 27 16 55 24 63 8 8 14 24 15 36 0 12 3 16 6 10 6 -16
33 -17 33 -3 0 11 -7 15 -51 24 -36 8 -42 29 -22 76 12 26 27 43 45 49 18 7
28 17 28 30 0 23 -15 28 -23 9 -3 -7 -8 2 -12 20 l-7 32 -69 0 c-39 0 -69 -4
-69 -10 0 -5 -4 -10 -9 -10 -15 0 -36 101 -23 109 7 4 -20 18 -58 31 -39 13
-70 28 -70 32 0 12 -35 10 -65 -4 -19 -9 -28 -9 -37 0 -15 15 -55 16 -63 2 -8
-13 -48 -13 -62 1 -8 8 -17 8 -33 -1 -13 -7 -42 -10 -67 -7 -71 8 -71 10 17
74 25 18 76 20 65 2 -4 -5 -2 -9 4 -9 16 0 19 24 4 38 -19 19 -17 82 2 82 8 0
15 5 15 10 0 6 9 10 20 10 11 0 20 5 20 10 0 6 -4 10 -9 10 -5 0 -17 7 -26 17
-13 13 -18 14 -25 3 -4 -7 -13 -9 -19 -6 -12 8 -71 -23 -71 -36 0 -4 -8 -8
-18 -8 -10 0 -27 -18 -41 -46 -24 -44 -27 -46 -59 -40 -19 3 -45 14 -57 26
-12 11 -31 20 -42 20 -16 0 -26 11 -39 46 -14 36 -23 46 -46 51 -21 4 -26 8
-16 14 9 6 4 9 -15 9 -16 0 -35 7 -43 15 -18 17 -64 20 -64 4 0 -6 -8 -8 -18
-5 -16 5 -18 2 -14 -24 3 -24 1 -30 -14 -31 -11 -1 -34 -2 -51 -4 -31 -3 -33
-1 -33 31 0 27 -5 37 -22 43 -13 5 -29 6 -36 4 -19 -8 -62 25 -62 47 0 11 -4
20 -10 20 -5 0 -20 21 -32 48 l-23 47 -58 3 c-56 3 -87 -10 -87 -37 0 -21 -38
-29 -127 -28 -50 1 -89 -2 -86 -6 3 -4 -3 -20 -13 -34 l-17 -27 -23 27 c-13
15 -28 27 -34 27 -5 0 -10 4 -10 8 0 4 -33 14 -72 21 -40 7 -80 19 -88 26 -8
8 -28 15 -43 17 -18 3 -33 13 -40 29 -18 35 -70 41 -122 14 -68 -35 -95 -57
-95 -76 0 -16 -7 -19 -41 -19 -32 0 -50 -8 -83 -35 -24 -19 -48 -35 -53 -35
-6 0 -17 -7 -24 -17 -8 -9 -26 -24 -41 -33 -25 -15 -88 -71 -250 -222 -32 -29
-57 -58 -58 -64 0 -16 -42 -51 -65 -56 -11 -2 -24 -13 -30 -26 -5 -12 -15 -22
-22 -22 -16 0 -16 -5 0 -30 10 -17 9 -22 -3 -31 -8 -5 -26 -8 -39 -5 -37 6
-51 -3 -51 -32 0 -25 -62 -102 -82 -102 -4 0 -17 -9 -28 -20 -11 -11 -17 -20
-14 -20 4 0 -13 -22 -37 -49 -68 -75 -91 -104 -102 -128 -6 -13 -14 -23 -19
-23 -4 0 -8 -7 -8 -15 0 -9 -17 -34 -38 -58 -21 -23 -49 -60 -62 -82 -13 -22
-39 -56 -58 -75 -29 -30 -115 -156 -328 -480 -23 -36 -69 -110 -102 -165 -32
-55 -112 -187 -176 -293 -64 -106 -116 -197 -116 -201 0 -5 -12 -26 -26 -47
-15 -21 -39 -62 -54 -91 -14 -29 -30 -50 -34 -46 -4 4 -5 1 -2 -7 7 -19 -9
-45 -22 -36 -12 7 -3 45 22 91 9 17 16 36 16 43 0 13 6 28 51 127 10 22 21 54
25 70 4 17 22 59 40 95 17 36 42 90 54 120 13 30 31 73 41 96 11 22 19 45 19
52 0 6 11 28 25 48 14 20 25 43 25 50 0 19 31 85 51 109 9 11 24 45 34 75 10
30 26 66 36 79 11 13 19 34 19 46 0 12 7 28 15 35 8 7 15 20 15 29 0 10 11 39
25 67 28 56 42 124 25 124 -6 0 -15 11 -20 25 -10 25 -45 35 -52 14 -2 -7 -20
-7 -53 -2 -36 6 -53 14 -61 31 -6 12 -18 30 -27 40 -58 64 36 169 115 128 14
-8 36 -12 50 -9 32 6 77 43 61 50 -18 7 -16 23 2 23 9 0 15 9 15 24 0 35 10
56 26 56 8 0 14 9 14 20 0 11 6 20 14 20 9 0 17 15 21 38 3 21 15 45 26 52 10
8 19 21 19 30 0 9 9 22 20 30 11 8 20 20 20 28 0 7 16 34 35 59 19 25 35 50
35 54 0 5 18 18 40 29 22 11 40 23 40 26 0 3 -5 2 -10 -1 -24 -15 -6 7 45 57
30 29 54 60 53 69 -4 20 20 49 38 49 8 0 14 7 14 16 0 23 37 72 61 79 11 4 22
19 26 36 3 16 9 27 13 24 9 -6 22 23 16 34 -3 4 8 15 24 26 32 21 60 83 60
131 0 34 33 73 45 54 5 -8 11 -8 21 1 17 14 18 82 2 109 -17 26 -1 51 36 61
23 6 29 4 33 -12 8 -28 30 -23 48 11 9 17 22 30 30 30 9 0 15 9 15 23 0 13 9
32 19 41 11 10 21 30 23 45 2 14 8 25 14 24 6 -1 20 13 30 32 10 19 22 35 26
35 5 0 8 9 8 20 0 11 4 20 8 20 7 0 29 84 46 180 2 14 7 34 11 46 4 13 1 27
-9 37 -9 8 -16 20 -16 25 0 5 -9 12 -20 15 -28 7 -25 43 6 63 19 13 28 14 37
5 14 -14 30 -15 22 -1 -3 6 0 10 7 10 29 0 63 56 73 120 9 62 -6 96 -44 102
-22 3 -31 0 -31 -9 0 -7 -15 -21 -34 -30 -32 -15 -37 -15 -60 1 -14 9 -26 23
-26 30 0 20 41 68 54 63 8 -3 11 10 10 44 -2 66 6 99 22 99 8 0 17 14 21 30 6
30 27 41 36 18 3 -7 6 -3 6 10 1 12 6 22 11 22 6 0 10 14 10 30 0 17 5 30 10
30 6 0 10 23 10 50 0 28 -4 50 -10 50 -5 0 -10 9 -10 20 0 23 -20 70 -31 70
-4 0 -15 23 -24 50 -9 28 -20 50 -23 50 -4 0 -19 11 -34 24 -40 34 -36 59 12
74 22 6 47 12 55 12 17 0 20 27 6 62 -5 13 -29 43 -55 68 -25 25 -46 50 -46
56 0 27 -32 71 -67 90 -29 16 -43 34 -58 72 -17 43 -26 52 -58 63 -44 14 -54
29 -60 85 -5 51 -36 112 -59 120 -13 4 -18 15 -18 45 0 22 -4 47 -9 57 -6 9
-17 38 -27 65 -31 87 -66 107 -119 65 -27 -21 -28 -21 -41 -3 -19 26 -18 36
10 68 16 19 33 27 55 27 17 0 31 -4 31 -10 0 -5 9 -10 20 -10 11 0 28 -7 38
-16 28 -26 85 -63 122 -80 19 -9 43 -21 53 -26 10 -5 22 -6 28 -2 21 12 66
-17 79 -52 9 -21 23 -37 37 -40 13 -4 23 -11 23 -16 0 -6 11 -7 28 -3 64 18
103 -3 117 -63 5 -24 14 -34 33 -39 15 -3 32 -13 38 -21 6 -8 35 -18 64 -23
30 -5 57 -15 62 -22 4 -8 21 -20 38 -27 16 -7 30 -17 30 -22 0 -5 15 -15 33
-23 30 -12 33 -12 40 7 5 16 13 19 32 14 14 -4 25 -2 25 4 0 6 9 6 26 0 32
-13 44 -13 44 0 0 6 -13 10 -30 10 -28 0 -30 3 -30 35 0 34 17 52 49 51 24 -1
38 -33 24 -55 -18 -29 -5 -61 29 -68 15 -3 31 -10 34 -14 11 -19 76 -9 106 16
l30 25 37 -22 c20 -12 39 -26 42 -30 3 -4 63 -3 133 2 70 6 136 8 146 5 14 -4
23 2 34 23 8 16 22 34 30 41 9 8 16 22 16 32 0 10 9 20 19 24 26 8 71 -4 71
-20 0 -7 18 -15 41 -19 46 -7 109 1 109 15 0 5 9 9 20 9 11 0 23 7 26 15 4 8
10 12 15 9 5 -3 12 2 15 10 3 9 15 16 25 16 10 0 19 7 19 15 0 8 6 15 14 15 7
0 24 9 38 19 39 31 79 37 94 16 11 -15 18 -16 38 -7 20 9 28 8 40 -3 8 -8 32
-15 54 -15 31 0 41 4 45 20 3 14 14 20 31 20 14 0 26 4 26 9 0 17 52 71 68 71
34 0 67 25 67 50 0 20 10 30 45 47 25 11 59 25 75 30 17 4 34 18 40 31 5 12
22 28 37 34 15 7 31 22 37 35 12 26 79 61 133 70 21 3 38 9 38 14 0 4 11 19
25 33 14 14 25 22 25 18 0 -4 11 5 25 20 15 16 25 39 25 57 0 36 30 50 63 28
28 -18 49 -10 107 43 25 22 56 43 70 46 14 4 36 18 50 33 14 14 39 33 55 41
17 8 45 29 63 47 18 17 46 34 62 38 17 4 30 11 30 16 0 5 14 9 31 9 29 0 30
-2 24 -31 -4 -17 -8 -38 -9 -46 -1 -8 -8 -18 -14 -22 -18 -11 -4 -104 14 -97
12 5 19 -12 15 -37 -1 -4 13 0 30 8 23 13 28 19 20 29 -9 11 -3 15 28 20 22 3
54 14 73 23 18 9 45 22 60 30 14 7 32 13 40 13 8 0 25 11 38 25 14 15 35 25
51 25 16 0 50 12 76 28 26 15 69 39 96 52 26 14 47 28 47 32 0 5 10 8 23 9 17
1 15 3 -10 10 -40 12 -51 28 -29 45 23 16 46 7 46 -17 0 -28 41 -24 97 10 27
16 66 35 88 42 22 7 51 21 64 31 13 10 28 18 32 18 5 0 65 27 134 60 69 33
128 60 131 60 3 0 62 28 132 62 70 33 138 66 152 71 14 5 43 19 65 30 68 36
309 124 323 119 8 -3 -33 -29 -90 -58z m1032 -19 c0 -8 -4 -15 -10 -15 -5 0
-10 7 -10 15 0 8 5 15 10 15 6 0 10 -7 10 -15z m-3160 -396 c0 -5 -7 -9 -15
-9 -15 0 -20 12 -9 23 8 8 24 -1 24 -14z m-3350 -34 c0 -8 -4 -15 -9 -15 -13
0 -22 16 -14 24 11 11 23 6 23 -9z m1533 1 c11 -27 -24 -45 -52 -27 -12 8 -12
12 -2 25 16 20 47 21 54 2z m1685 -48 c-6 -18 -28 -21 -28 -4 0 9 7 16 16 16
9 0 14 -5 12 -12z m1392 -189 c0 -5 -4 -9 -10 -9 -5 0 -10 7 -10 16 0 8 5 12
10 9 6 -3 10 -10 10 -16z m-3888 -104 c0 -5 -5 -11 -11 -13 -6 -2 -11 4 -11
13 0 9 5 15 11 13 6 -2 11 -8 11 -13z m1824 4 c10 -17 -13 -36 -27 -22 -12 12
-4 33 11 33 5 0 12 -5 16 -11z m-1971 -120 c0 -7 -8 -15 -17 -17 -18 -3 -25
18 -11 32 10 10 28 1 28 -15z m1685 -349 c0 -11 -7 -20 -15 -20 -15 0 -21 21
-8 33 12 13 23 7 23 -13z m178 2 c2 -7 -6 -12 -17 -12 -21 0 -27 11 -14 24 9
9 26 2 31 -12z m-1127 -172 c11 -6 19 -21 19 -36 0 -22 -4 -25 -32 -22 -26 2
-34 8 -36 27 -2 13 2 28 10 32 17 11 16 11 39 -1z m2079 -500 c0 -5 -7 -10
-15 -10 -8 0 -15 5 -15 10 0 6 7 10 15 10 8 0 15 -4 15 -10z m360 -110 c0 -12
-28 -25 -36 -17 -9 9 6 27 22 27 8 0 14 -5 14 -10z m-3490 -15 c0 -8 -7 -15
-15 -15 -8 0 -15 7 -15 15 0 8 7 15 15 15 8 0 15 -7 15 -15z m2990 -10 c0 -8
-7 -15 -15 -15 -8 0 -15 7 -15 15 0 8 7 15 15 15 8 0 15 -7 15 -15z m-3015
-385 c-3 -5 -10 -10 -16 -10 -5 0 -9 5 -9 10 0 6 7 10 16 10 8 0 12 -4 9 -10z
m3747 -112 c-6 -6 -15 -9 -18 -5 -4 3 -4 14 0 23 5 13 9 15 18 6 9 -9 9 -15 0
-24z m-3562 -19 c0 -5 -7 -9 -15 -9 -15 0 -20 12 -9 23 8 8 24 -1 24 -14z
m7478 -31 c-6 -18 -28 -21 -28 -4 0 9 7 16 16 16 9 0 14 -5 12 -12z m-7973
-178 c-3 -5 -10 -10 -16 -10 -5 0 -9 5 -9 10 0 6 7 10 16 10 8 0 12 -4 9 -10z
m3225 -80 c0 -5 -4 -10 -10 -10 -5 0 -10 5 -10 10 0 6 5 10 10 10 6 0 10 -4
10 -10z m553 -84 c6 -15 -11 -36 -29 -36 -14 0 -27 28 -18 41 8 14 41 11 47
-5z m397 -61 c0 -8 -7 -15 -16 -15 -14 0 -14 3 -4 15 7 8 14 15 16 15 2 0 4
-7 4 -15z m-1062 -123 c2 -13 -3 -25 -13 -28 -23 -9 -38 10 -30 36 9 27 39 22
43 -8z m82 8 c0 -5 -4 -10 -10 -10 -5 0 -10 5 -10 10 0 6 5 10 10 10 6 0 10
-4 10 -10z m866 -5 c10 -25 -3 -44 -25 -38 -23 6 -27 23 -9 41 16 16 27 15 34
-3z m3272 -4 c20 -12 10 -45 -14 -49 -29 -4 -51 23 -34 43 14 17 29 19 48 6z
m-6821 -108 c9 -22 -24 -45 -47 -33 -25 13 -32 48 -12 59 19 11 50 -3 59 -26z
m2677 21 c32 -12 9 -74 -26 -74 -19 0 -38 20 -38 40 0 32 30 47 64 34z m171
-39 c0 -11 -8 -21 -17 -23 -14 -3 -18 3 -18 23 0 20 4 26 18 23 9 -2 17 -12
17 -23z m-48 -139 c-4 -9 -11 -16 -17 -16 -17 0 -24 31 -9 41 18 11 34 -5 26
-25z m773 -140 c0 -8 -4 -17 -8 -20 -13 -8 -35 11 -28 23 10 16 36 14 36 -3z
m-4406 -335 c7 -10 -3 -41 -13 -41 -17 1 -33 20 -28 34 7 17 32 22 41 7z
m4133 -33 c-3 -8 -6 -5 -6 6 -1 11 2 17 5 13 3 -3 4 -12 1 -19z m-2477 -30 c0
-7 -5 -20 -10 -28 -8 -13 -11 -13 -26 2 -9 9 -13 21 -10 27 10 15 46 14 46 -1z
m2694 -31 c28 -20 5 -59 -32 -55 -22 2 -28 9 -30 36 -3 28 0 32 20 32 14 0 32
-6 42 -13z m-2116 -92 c3 -31 -12 -48 -37 -40 -21 6 -29 43 -14 59 14 14 48 1
51 -19z m3039 -24 c6 -14 19 -28 27 -33 9 -5 16 -15 16 -23 0 -25 -21 -28 -44
-6 -12 12 -30 21 -39 21 -12 0 -17 8 -17 28 0 16 3 32 7 36 13 13 37 1 50 -23z
m-3872 -92 c0 -17 -6 -25 -21 -27 -27 -4 -38 23 -17 43 21 21 38 14 38 -16z
m1043 -63 c6 -29 -15 -43 -35 -24 -14 14 -14 20 -3 33 16 19 34 15 38 -9z
m-2443 -175 c3 -5 1 -12 -5 -16 -5 -3 -10 1 -10 9 0 18 6 21 15 7z m1803 -17
c4 -27 -26 -40 -46 -20 -21 20 -8 48 20 44 14 -2 24 -11 26 -24z m3478 -25 c8
-14 -21 -43 -35 -35 -6 4 -11 16 -11 27 0 21 34 27 46 8z m-3093 -29 c-3 -11
-9 -20 -14 -20 -14 0 -11 28 4 33 6 3 13 6 14 6 0 1 -1 -8 -4 -19z m-253 -10
c0 -5 -7 -10 -15 -10 -8 0 -15 5 -15 10 0 6 7 10 15 10 8 0 15 -4 15 -10z
m-2210 -33 c0 -21 -12 -28 -27 -16 -19 16 -16 29 7 29 11 0 20 -6 20 -13z
m3305 -27 c0 -16 -6 -26 -18 -28 -19 -4 -32 20 -23 44 9 25 41 13 41 -16z
m-1065 -94 c0 -8 -4 -17 -9 -21 -12 -7 -24 12 -16 25 9 15 25 12 25 -4z m-970
-30 c0 -3 -4 -8 -10 -11 -5 -3 -10 -1 -10 4 0 6 5 11 10 11 6 0 10 -2 10 -4z
m2360 -23 c13 -13 13 -16 -1 -26 -21 -16 -31 -45 -17 -49 7 -3 3 -13 -10 -26
-42 -42 -72 -21 -72 49 0 38 5 51 22 63 24 17 54 13 78 -11z m2352 -5 c-15
-15 -26 -4 -18 18 5 13 9 15 18 6 9 -9 9 -15 0 -24z m-2732 -8 c0 -15 -7 -20
-25 -20 -24 0 -34 18 -18 33 15 15 43 7 43 -13z m726 -10 c7 0 16 -11 20 -25
5 -20 0 -30 -20 -46 -30 -24 -58 -100 -38 -107 7 -2 12 -18 12 -37 0 -28 -4
-33 -30 -38 -21 -5 -30 -12 -30 -27 0 -11 -4 -20 -10 -20 -5 0 -10 23 -10 50
0 39 -3 50 -16 50 -11 0 -14 5 -10 16 3 9 6 22 6 30 0 17 37 19 43 2 2 -7 8
-9 13 -5 5 4 2 12 -6 18 -12 7 -12 11 -3 17 9 6 7 12 -7 22 -48 35 0 119 58
104 8 -2 20 -4 28 -4z m-269 -36 c8 -21 -17 -64 -38 -64 -29 0 -42 56 -16 72
20 13 47 9 54 -8z m-2634 -90 c-6 -16 -29 -19 -38 -4 -4 6 -1 17 5 26 15 18
42 0 33 -22z m2702 -51 c44 -60 57 -104 42 -137 -12 -24 -64 -56 -92 -56 -20
0 -55 72 -55 114 0 45 35 126 55 126 8 0 31 -21 50 -47z m-842 -20 c8 -7 -11
-33 -24 -33 -5 0 -9 9 -9 20 0 19 20 27 33 13z m-1993 -23 c0 -11 -4 -20 -10
-20 -5 0 -10 9 -10 20 0 11 5 20 10 20 6 0 10 -9 10 -20z m2464 -1 c-3 -5 -10
-7 -15 -3 -5 3 -7 10 -3 15 3 5 10 7 15 3 5 -3 7 -10 3 -15z m104 -62 c4 -22
-27 -35 -38 -16 -10 15 7 42 24 36 6 -2 12 -11 14 -20z m106 -16 c9 -14 -4
-41 -19 -41 -18 0 -28 17 -21 35 6 17 32 20 40 6z m-1294 -42 c0 -24 -23 -21
-28 4 -2 10 3 17 12 17 10 0 16 -9 16 -21z m1576 -7 c-3 -3 -1 -11 4 -17 7 -9
3 -17 -14 -28 -22 -15 -25 -15 -40 2 -15 16 -14 19 4 39 12 12 27 19 36 15 8
-3 12 -8 10 -11z m-206 -62 c0 -24 -26 -38 -42 -22 -16 16 -2 42 22 42 13 0
20 -7 20 -20z m210 -69 c0 -25 -20 -38 -31 -20 -15 23 -10 39 11 39 13 0 20
-7 20 -19z m-82 -50 c-5 -24 -38 -27 -38 -3 0 10 3 21 6 25 11 11 35 -5 32
-22z m-3981 -87 c7 -20 -17 -37 -34 -23 -15 13 -6 39 13 39 8 0 17 -7 21 -16z
m3341 -15 c-2 -6 -8 -10 -13 -10 -5 0 -11 4 -13 10 -2 6 4 11 13 11 9 0 15 -5
13 -11z m5130 -176 c5 -17 -26 -29 -40 -15 -6 6 -7 15 -3 22 9 14 37 9 43 -7z
m-9780 -95 c15 -15 -2 -38 -28 -38 -22 0 -32 24 -17 39 14 14 30 14 45 -1z
m10073 -151 c-13 -13 -26 -3 -16 12 3 6 11 8 17 5 6 -4 6 -10 -1 -17z m-5594
-143 c-9 -9 -28 6 -21 18 4 6 10 6 17 -1 6 -6 8 -13 4 -17z m3703 -24 c0 -5
-7 -10 -15 -10 -8 0 -15 5 -15 10 0 6 7 10 15 10 8 0 15 -4 15 -10z m-2500
-26 c0 -14 -12 -19 -23 -8 -9 9 4 35 14 28 5 -3 9 -12 9 -20z m-30 -38 c0 -22
-16 -36 -41 -36 -10 0 -12 43 -2 53 3 4 15 7 25 7 12 0 18 -7 18 -24z m-53
-102 c7 -18 -17 -38 -31 -24 -11 11 -1 40 14 40 6 0 13 -7 17 -16z m1333 -94
c0 -5 -4 -10 -10 -10 -5 0 -10 5 -10 10 0 6 5 10 10 10 6 0 10 -4 10 -10z
m906 -155 c4 -8 1 -22 -6 -30 -16 -19 -40 -2 -40 26 0 23 38 26 46 4z m149
-745 c3 -5 -1 -10 -10 -10 -9 0 -13 5 -10 10 3 6 8 10 10 10 2 0 7 -4 10 -10z
m-3547 -32 c16 -16 15 -23 -4 -43 -12 -12 -19 -13 -30 -4 -17 14 -18 46 -1 52
19 8 22 8 35 -5z m4762 -28 c0 -5 -4 -10 -10 -10 -5 0 -10 5 -10 10 0 6 5 10
10 10 6 0 10 -4 10 -10z m-3563 -182 c-3 -8 -6 -5 -6 6 -1 11 2 17 5 13 3 -3
4 -12 1 -19z"/>
<path d="M5750 6260 c0 -11 2 -20 4 -20 2 0 6 9 9 20 3 11 1 20 -4 20 -5 0 -9
-9 -9 -20z"/>
<path d="M6080 2895 c0 -8 5 -15 10 -15 6 0 10 7 10 15 0 8 -4 15 -10 15 -5 0
-10 -7 -10 -15z"/>
<path d="M6168 2823 c6 -2 18 -2 25 0 6 3 1 5 -13 5 -14 0 -19 -2 -12 -5z"/>
</g>
</svg>
